PathFileType	4	(X/Y/Z)	/Users/FranklinZhao/OpenSimProject/Simulation/Models/Rajapogal_2015/marker_data/trc/SN001_0010_10m_01.trc
DataRate	CameraRate	NumFrames	NumMarkers	Units	OrigDataRate	OrigDataStartFrame	OrigNumFrames
200.000000	200.000000	4	72	mm	200.000000	400	641
Frame#	Time	LPSIS			RPSIS			LICR			RICR			LASIS			RASIS			STER			XPRO			C7			T4			T8			T10			RUA1			RUA2			RUA3			RUA4			RHLE			RHME			RTEMP			RHEAD			LHEAD			LTEMP			RACR			LACR			LUA1			LUA2			LUA3			LUA4			LHLE			LHME			LFA1			LFA2			LFA3			LRSP			LUSP			RFA1			RFA2			RFA3			RRSP			RUSP			LTH1			LTH2			LTH3			LTH4			LFLE			LFME			LSK1			LSK2			LSK3			LSK4			LTAM			LFAL			LFCC			LFMT1			LFMT2			LFMT5			RTH1			RTH2			RTH3			RTH4			RFLE			RFME			RSK1			RSK2			RSK3			RSK4			RFAL			RTAM			RFCC			RFMT1			RFMT2			RFMT5			
		X1	Y1	Z1	X2	Y2	Z2	X3	Y3	Z3	X4	Y4	Z4	X5	Y5	Z5	X6	Y6	Z6	X7	Y7	Z7	X8	Y8	Z8	X9	Y9	Z9	X10	Y10	Z10	X11	Y11	Z11	X12	Y12	Z12	X13	Y13	Z13	X14	Y14	Z14	X15	Y15	Z15	X16	Y16	Z16	X17	Y17	Z17	X18	Y18	Z18	X19	Y19	Z19	X20	Y20	Z20	X21	Y21	Z21	X22	Y22	Z22	X23	Y23	Z23	X24	Y24	Z24	X25	Y25	Z25	X26	Y26	Z26	X27	Y27	Z27	X28	Y28	Z28	X29	Y29	Z29	X30	Y30	Z30	X31	Y31	Z31	X32	Y32	Z32	X33	Y33	Z33	X34	Y34	Z34	X35	Y35	Z35	X36	Y36	Z36	X37	Y37	Z37	X38	Y38	Z38	X39	Y39	Z39	X40	Y40	Z40	X41	Y41	Z41	X42	Y42	Z42	X43	Y43	Z43	X44	Y44	Z44	X45	Y45	Z45	X46	Y46	Z46	X47	Y47	Z47	X48	Y48	Z48	X49	Y49	Z49	X50	Y50	Z50	X51	Y51	Z51	X52	Y52	Z52	X53	Y53	Z53	X54	Y54	Z54	X55	Y55	Z55	X56	Y56	Z56	X57	Y57	Z57	X58	Y58	Z58	X59	Y59	Z59	X60	Y60	Z60	X61	Y61	Z61	X62	Y62	Z62	X63	Y63	Z63	X64	Y64	Z64	X65	Y65	Z65	X66	Y66	Z66	X67	Y67	Z67	X68	Y68	Z68	X69	Y69	Z69	X70	Y70	Z70	X71	Y71	Z71	X72	Y72	Z72	

401	2	1288.5234375	277.8904113769531	976.4387817382812	1289.968139648438	200.9575042724609	971.9205322265625	1305.26708984375	367.7642211914062	1038.51220703125	1315.628540039062	110.1817932128906	1050.231323242188	1477.19677734375	376.278076171875	960.0347900390625	1485.692138671875	115.6163940429688	955.2634887695312	1460.048828125	240.9660491943359	1421.955200195312	1517.591918945312	247.5869293212891	1213.754028320312	1327.648803710938	242.3335571289062	1525.03955078125	1272.922729492188	258.306884765625	1415.837158203125	1267.811767578125	253.8473510742188	1282.17724609375	1269.5078125	257.1285095214844	1237.601318359375	1285.304443359375	16.98323059082031	1306.660400390625	1358.035400390625	11.9928674697876	1287.925537109375	1350.512084960938	4.242085933685303	1214.682983398438	1276.627319335938	8.485989570617676	1221.68359375	1288.437377929688	8.510956764221191	1132.052734375	1280.751098632812	87.90953063964844	1129.520874023438	1486.657348632812	152.1026458740234	1677.732666015625	1529.905883789062	185.4570770263672	1687.549072265625	1533.516357421875	267.95361328125	1685.981689453125	1486.339721679688	308.1950988769531	1671.619018554688	1355.825561523438	59.76409149169922	1469.31640625	1385.066162109375	428.4031982421875	1491.349731445312	1452.78759765625	490.6722106933594	1356.6181640625	1388.344604492188	510.795166015625	1322.517333984375	1421.621215820312	539.022216796875	1247.419189453125	1484.97021484375	518.2854614257812	1280.038940429688	1478.716064453125	545.80029296875	1189.107299804688	1448.409545898438	487.417236328125	1150.243774414062	1692.849487304688	510.2249755859375	1100.319580078125	1686.56884765625	555.4922485351562	1092.10302734375	1702.336181640625	520.363525390625	1068.595947265625	1712.244873046875	481.0741577148438	1033.263671875	1697.59228515625	546.2140502929688	1008.818359375	1317.961669921875	-52.84919357299805	943.5452880859375	1342.031494140625	-16.17024421691895	929.4944458007812	1318.638916015625	-27.72916793823242	906.0741577148438	1306.132568359375	-3.136638641357422	851.1353759765625	1265.557495117188	-51.30116271972656	874.62548828125	1354.601196289062	410.4801940917969	694.65576171875	1306.756469726562	405.6519775390625	710.5739135742188	1268.290649414062	385.7069396972656	611.7342529296875	1331.045532226562	392.1818542480469	596.660400390625	1264.60791015625	369.8489990234375	517.714599609375	1259.2939453125	250.3697052001953	508.1008605957031	1201.037963867188	385.2338562011719	347.3397521972656	1142.3349609375	378.5501098632812	366.5150146484375	1115.335205078125	360.6907043457031	285.0696716308594	1177.36181640625	369.5668640136719	268.9181213378906	1134.098876953125	244.1230926513672	108.9260177612305	1087.881225585938	313.1680908203125	102.0753021240234	1051.667236328125	259.2344665527344	73.00471496582031	1258.90673828125	281.3194580078125	29.43201065063477	1253.410034179688	318.4501647949219	30.92108726501465	1201.854370117188	359.4361267089844	25.939697265625	1511.494873046875	68.81932830810547	709.960693359375	1569.382568359375	66.19636535644531	725.174560546875	1618.248657226562	75.38290405273438	653.3319702148438	1562.3876953125	81.44783020019531	622.384033203125	1637.948364257812	95.65373992919922	541.662109375	1663.381469726562	215.6944885253906	525.9302368164062	1633.332275390625	83.57666015625	360.7781982421875	1682.34521484375	70.69925689697266	391.8636474609375	1714.25439453125	87.44014739990234	288.5949401855469	1650.722290039062	94.17918395996094	280.1126403808594	1715.465698242188	128.8848114013672	84.06529998779297	1756.4814453125	200.2561187744141	118.1987609863281	1696.93359375	186.5678558349609	49.58358764648438	1881.984375	148.4876251220703	90.92591094970703	1880.141723632812	117.5295257568359	90.83827209472656	1844.0546875	81.14479064941406	68.419677734375	
402	2.005	1297.281860351562	276.9463500976562	975.0582275390625	1298.90576171875	200.1155395507812	970.2632446289062	1313.411254882812	366.6809997558594	1037.148071289062	1326.568359375	109.585693359375	1048.093872070312	1485.61865234375	376.3867797851562	958.8310546875	1495.091674804688	115.5813140869141	953.7186889648438	1469.023071289062	240.4314117431641	1420.489135742188	1526.48828125	247.2996978759766	1212.142700195312	1336.725952148438	241.5996704101562	1523.624633789062	1281.930297851562	257.8911437988281	1414.457763671875	1276.627075195312	253.0988311767578	1280.761840820312	1278.248901367188	256.2884826660156	1235.952392578125	1292.940673828125	17.12442588806152	1305.52490234375	1366.011596679688	11.53445720672607	1286.414672851562	1358.2978515625	3.876152753829956	1213.213623046875	1284.280639648438	8.504166603088379	1220.401611328125	1295.8359375	8.299330711364746	1130.960327148438	1288.272216796875	87.85378265380859	1128.606811523438	1495.709594726562	151.5029602050781	1676.143432617188	1539.031127929688	184.7766723632812	1685.9580078125	1542.572875976562	267.3639221191406	1684.261596679688	1495.427001953125	307.5391235351562	1670.133666992188	1364.643676757812	59.35597229003906	1467.8759765625	1394.215454101562	427.7904052734375	1490.313598632812	1462.272583007812	490.4841003417969	1356.228149414062	1398.068603515625	510.4297790527344	1321.525146484375	1431.794677734375	539.0743408203125	1246.790649414062	1495.014770507812	518.279052734375	1279.817016601562	1489.388793945312	546.2415161132812	1188.900268554688	1459.444702148438	488.0714111328125	1149.54833984375	1704.661865234375	510.240234375	1102.981079101562	1698.4248046875	555.4451293945312	1094.5712890625	1714.481811523438	520.2606811523438	1071.312622070312	1724.880493164062	481.0829772949219	1036.165771484375	1710.540405273438	546.1430053710938	1011.407592773438	1323.626831054688	-53.24635696411133	941.9890747070312	1347.817260742188	-16.48342704772949	927.9847412109375	1324.35009765625	-28.12230682373047	904.7115478515625	1311.6015625	-3.413695335388184	849.7396850585938	1270.9501953125	-51.48213577270508	873.6357421875	1361.377563476562	410.5995178222656	694.299560546875	1313.479614257812	405.7444763183594	710.4781494140625	1274.491943359375	385.6986083984375	611.8975219726562	1337.055908203125	392.1444091796875	596.320068359375	1270.137939453125	369.9945678710938	517.8734741210938	1265.077392578125	250.4963836669922	508.0675964355469	1204.658203125	385.3854675292969	348.0856018066406	1146.167846679688	378.5857238769531	367.7581176757812	1118.360107421875	360.5381164550781	286.7475891113281	1180.185791015625	369.8656311035156	269.9645385742188	1135.165649414062	244.4145812988281	110.3835220336914	1088.83935546875	313.2330627441406	104.0595016479492	1052.293701171875	259.3581237792969	75.42799377441406	1258.884887695312	281.5613403320312	29.3447265625	1253.43408203125	318.4242248535156	30.89886283874512	1201.960815429688	359.3977355957031	26.23404693603516	1519.287109375	68.05391693115234	707.5567626953125	1577.327880859375	65.68186950683594	722.462646484375	1625.823486328125	74.83863067626953	650.486328125	1569.826782226562	80.84837341308594	619.8499145507812	1645.585571289062	95.72272491455078	539.0888061523438	1671.301391601562	216.2628326416016	523.50927734375	1645.681274414062	82.98786163330078	358.5584411621094	1693.933349609375	70.47906494140625	390.8468933105469	1728.563720703125	86.91043853759766	288.5036010742188	1665.219848632812	93.41735076904297	278.2916870117188	1735.451538085938	127.6122817993164	83.72946929931641	1775.371948242188	199.0084533691406	118.7691268920898	1717.691040039062	185.3755340576172	48.80233764648438	1901.867919921875	148.0391998291016	94.5328369140625	1900.220336914062	117.1365509033203	94.44077301025391	1864.686767578125	80.41704559326172	71.10379791259766	
403	2.01	1306.20263671875	275.9837341308594	973.4954223632812	1308.002685546875	199.2864379882812	968.8648071289062	1321.720703125	365.9200439453125	1035.691162109375	1335.931640625	108.8148040771484	1046.98095703125	1494.13232421875	376.2261352539062	957.3370971679688	1504.413452148438	115.6552200317383	952.1380004882812	1478.146850585938	239.9718475341797	1418.926879882812	1535.405151367188	247.1047821044922	1210.58349609375	1345.720703125	241.1969604492188	1522.274536132812	1290.971313476562	257.3463745117188	1413.077026367188	1285.59521484375	252.3265991210938	1279.345703125	1287.206787109375	255.3714599609375	1234.686645507812	1301.403930664062	16.85173988342285	1304.319091796875	1373.92919921875	11.12674331665039	1285.031616210938	1365.888916015625	3.413341283798218	1211.925048828125	1292.038452148438	8.522472381591797	1219.437744140625	1303.29150390625	8.160351753234863	1129.747192382812	1295.888916015625	87.66680145263672	1127.380004882812	1504.74169921875	150.8683471679688	1674.569091796875	1548.023559570312	184.2009735107422	1684.372192382812	1551.587768554688	266.6878662109375	1682.702514648438	1504.48046875	306.87841796875	1668.667114257812	1373.429443359375	58.92898178100586	1466.213745117188	1403.360229492188	427.1344909667969	1489.082763671875	1471.783447265625	490.2214660644531	1355.662963867188	1407.817626953125	510.2440185546875	1320.623291015625	1441.955200195312	539.0674438476562	1246.25048828125	1504.920654296875	518.2258911132812	1279.596923828125	1500.038452148438	546.4950561523438	1188.678588867188	1470.48681640625	488.3022155761719	1148.99560546875	1716.143310546875	510.1364135742188	1105.539794921875	1710.285034179688	555.375732421875	1097.051513671875	1726.43798828125	520.083740234375	1074.091918945312	1737.13525390625	480.92236328125	1038.908325195312	1723.406005859375	546.0463256835938	1014.119873046875	1329.59326171875	-53.61867904663086	940.7388305664062	1353.784423828125	-17.01653861999512	926.4140014648438	1330.323364257812	-28.44975662231445	903.3204956054688	1317.142944335938	-3.64460277557373	848.4785766601562	1276.494750976562	-51.66810989379883	872.6366577148438	1368.26708984375	410.5953369140625	693.90234375	1320.482177734375	405.8975219726562	710.430419921875	1280.863159179688	385.5745239257812	612.1795043945312	1343.26171875	392.2760009765625	596.1229248046875	1275.76318359375	370.0269775390625	517.9312744140625	1271.085815429688	250.3413391113281	508.1156311035156	1208.47998046875	385.6098022460938	348.9869079589844	1150.171508789062	378.4513244628906	369.1721496582031	1121.532104492188	360.7607727050781	288.5396118164062	1183.093872070312	369.7597045898438	270.8921508789062	1136.329467773438	244.6607971191406	111.6496658325195	1089.992309570312	313.543212890625	105.9298782348633	1053.033935546875	259.785888671875	78.01132965087891	1258.822631835938	281.2990112304688	29.40815162658691	1253.419311523438	318.5457153320312	30.67611122131348	1202.139282226562	359.4949645996094	26.46713256835938	1527.153930664062	67.49203491210938	705.3076171875	1585.167236328125	64.95175170898438	720.040283203125	1633.389526367188	74.12235260009766	647.7001342773438	1577.273193359375	80.16944122314453	617.3584594726562	1653.05517578125	95.66205596923828	536.5505981445312	1679.088623046875	217.2839050292969	521.45556640625	1657.835083007812	82.65206909179688	356.4979553222656	1705.3876953125	70.37372589111328	390.0128173828125	1742.386474609375	86.40388488769531	288.4082946777344	1679.326904296875	92.73790740966797	276.6748352050781	1754.680053710938	126.1948089599609	83.71286773681641	1793.65283203125	197.7347717285156	119.5658264160156	1737.687377929688	184.0607299804688	48.17786026000977	1920.966064453125	147.4914093017578	98.39544677734375	1919.4912109375	116.484748840332	98.21482086181641	1884.498413085938	79.62128448486328	74.23681640625	
404	2.015	1315.256225585938	275.0325012207031	972.1502685546875	1317.380249023438	198.1883392333984	967.357421875	1330.1611328125	365.056884765625	1034.114501953125	1345.233520507812	108.0549163818359	1045.823364257812	1502.662841796875	376.1875	956.0244750976562	1513.906982421875	115.501335144043	950.8871459960938	1487.2021484375	239.3269348144531	1417.75341796875	1544.518310546875	246.7626647949219	1209.269653320312	1354.477783203125	240.7784423828125	1521.115234375	1300.063842773438	256.8592224121094	1411.610717773438	1294.618530273438	251.6878204345703	1278.020629882812	1296.23046875	254.7099151611328	1233.261474609375	1309.31884765625	16.95019340515137	1303.324584960938	1382.0361328125	10.66032981872559	1283.744995117188	1374.056640625	2.857586860656738	1210.474731445312	1299.92236328125	8.473342895507812	1218.199340820312	1310.861328125	7.947757244110107	1128.6201171875	1303.726684570312	87.49124908447266	1126.175170898438	1513.834228515625	150.2113494873047	1673.182983398438	1557.192260742188	183.5104064941406	1682.967651367188	1560.60986328125	266.1160888671875	1681.285888671875	1513.464965820312	306.1908264160156	1667.104125976562	1382.31201171875	58.31082153320312	1464.860229492188	1412.422241210938	426.4690246582031	1488.006713867188	1481.284057617188	489.9791564941406	1355.143676757812	1417.41015625	509.8390502929688	1319.7822265625	1452.024047851562	538.8997802734375	1245.737060546875	1514.8095703125	518.3331909179688	1279.449462890625	1510.339111328125	546.92333984375	1188.619018554688	1481.36865234375	488.4606018066406	1148.350952148438	1727.51708984375	510.0982666015625	1108.041870117188	1721.882690429688	555.3013916015625	1099.58740234375	1738.166748046875	519.9503173828125	1076.6796875	1749.355712890625	480.8615417480469	1041.7470703125	1736.000122070312	545.8976440429688	1016.835144042969	1335.859497070312	-53.92837905883789	939.4030151367188	1359.924194335938	-17.32343101501465	924.8878784179688	1336.237426757812	-28.81990051269531	902.1536865234375	1322.802124023438	-3.980571985244751	847.3574829101562	1282.278564453125	-51.86960220336914	871.7439575195312	1375.39990234375	410.5556640625	693.4589233398438	1327.551147460938	405.8426818847656	710.7491455078125	1287.352783203125	385.4178161621094	612.3570556640625	1349.6474609375	392.0953674316406	595.9011840820312	1281.500366210938	370.0430603027344	518.2130126953125	1277.1044921875	250.330322265625	508.0975952148438	1212.515869140625	385.7361450195312	349.8591918945312	1154.465087890625	378.3954772949219	370.6736450195312	1124.84326171875	360.66015625	290.2310791015625	1186.198120117188	369.9990844726562	272.0546569824219	1137.63916015625	245.0095520019531	113.224723815918	1091.18310546875	313.8508605957031	108.3397674560547	1053.919799804688	260.305908203125	80.84663391113281	1258.770385742188	281.4218444824219	29.35488891601562	1253.428955078125	318.5484313964844	30.71571731567383	1202.349243164062	359.4921875	26.86308479309082	1534.994262695312	66.73269653320312	703.2169189453125	1593.17333984375	64.46823883056641	717.5739135742188	1641.09619140625	73.51438903808594	645.2696533203125	1584.8037109375	79.54930877685547	615.0038452148438	1660.585327148438	95.66702270507812	534.0411987304688	1686.9990234375	217.95751953125	519.1834716796875	1669.6806640625	82.15547180175781	354.7117919921875	1716.43603515625	70.06732940673828	389.3291015625	1755.689453125	85.81224060058594	288.4067993164062	1692.93310546875	91.91519927978516	275.4474487304688	1773.160278320312	124.878303527832	83.85885620117188	1811.094604492188	196.4734649658203	120.4106750488281	1756.93115234375	182.4220733642578	47.85570907592773	1939.358520507812	147.0994415283203	102.2228469848633	1937.979736328125	115.8143157958984	101.8170928955078	1903.827514648438	78.78099822998047	76.90585327148438	
